<svg width="512" height="512" viewBox="0 0 512 512" fill="none" xmlns="http://www.w3.org/2000/svg">
  <rect width="512" height="512" rx="128" fill="#3B82F6"/>
  <path d="M128 160C128 142.327 142.327 128 160 128H352C369.673 128 384 142.327 384 160V352C384 369.673 369.673 384 352 384H160C142.327 384 128 369.673 128 352V160Z" fill="white"/>
  <path d="M192 200C192 195.582 195.582 192 200 192H312C316.418 192 320 195.582 320 200V240C320 244.418 316.418 248 312 248H200C195.582 248 192 244.418 192 240V200Z" fill="#3B82F6"/>
  <path d="M192 280C192 275.582 195.582 272 200 272H312C316.418 272 320 275.582 320 280V320C320 324.418 316.418 328 312 328H200C195.582 328 192 324.418 192 320V280Z" fill="#3B82F6"/>
  <circle cx="160" cy="160" r="16" fill="#3B82F6"/>
  <circle cx="160" cy="200" r="16" fill="#3B82F6"/>
  <circle cx="160" cy="240" r="16" fill="#3B82F6"/>
  <circle cx="160" cy="280" r="16" fill="#3B82F6"/>
  <circle cx="160" cy="320" r="16" fill="#3B82F6"/>
</svg> 